# xmcd
# 
# Track frame offsets:
#     150
#     12873
#     31320
#     44757
#     56507
#     67417
#     82758
#     96813
#     113081
#     124817
#     140273
#     154313
#     167514
#     180183
#     192259
#     204775
#     219549
#     232022
#     241659
#     252401
# 
# Disc length: 3519
# 
# Revision: 0
# Processed by: cddbd v1.5.2PL0 Copyright (c) Steve Scherf et al.
# Submitted via: fre:ac v1.0.17
# 
DISCID=0c0dbd14
DTITLE=Various Artist - GREAT BLUES MASTERS
DYEAR=2006
DGENRE=Blues
TTITLE0=B.B. King - Everyday I Have The Blues
TTITLE1=B.B. King - My Sometimes Baby
TTITLE2=Lightnin' Hopkins - Katie Mae
TTITLE3=Lightnin' Hopkins - Black Cat
TTITLE4=John Lee Hooker - Gonna Boogie
TTITLE5=John Lee Hooker - Half A Stranger
TTITLE6=Otis Rush - I Can't Quit You Baby
TTITLE7=Otis Rush - Double Trouble [alt.]
TTITLE8=Snooks Eaglin - You Give Me Nothing But The Blues
TTITLE9=Snooks Eaglin - Tipitina
TTITLE10=Lowell Fulson - Tramp
TTITLE11=Lowell Fulson - Crying Won't Help
TTITLE12=Elmore James - The Sky Is Crying
TTITLE13=Elmore James - Wild About You Baby
TTITLE14=Johnny Guitar Watson - Hot Little Mama
TTITLE15=Johnny Guitar Watson - Gonna Hit The Highway
TTITLE16=Magic Sam - Easy Baby
TTITLE17=Magic Sam - Look Whatcha Done
TTITLE18=Junior Wells - Come On In Ths House
TTITLE19=Junior Wells - Galloping Horses A Lazy Mule
EXTD=blues and soul records no.71 special sampler CD
EXTT0=
EXTT1=
EXTT2=
EXTT3=
EXTT4=
EXTT5=
EXTT6=
EXTT7=
EXTT8=
EXTT9=
EXTT10=
EXTT11=
EXTT12=
EXTT13=
EXTT14=
EXTT15=
EXTT16=
EXTT17=
EXTT18=
EXTT19=
PLAYORDER=
